<svg xmlns="http://www.w3.org/2000/svg" width="1295" height="472" viewBox="0 0 1295 472" fill="none"><path d="M1168.3 355.495V418.812H1158.1L1128.26 375.684H1127.74V418.812H1116.27V355.495H1126.53L1156.34 398.655H1156.89V355.495H1168.3Z" fill="#78B743"></path><path fill-rule="evenodd" clip-rule="evenodd" d="M1146.02 296.612C1227.93 296.612 1294.33 230.215 1294.33 148.31C1294.33 66.405 1227.93 0.0078125 1146.02 0.0078125C1064.12 0.0078125 997.723 66.405 997.723 148.31C997.723 230.215 1064.12 296.612 1146.02 296.612ZM1137.67 163.111C1137.67 174.631 1143.97 188.352 1174.02 188.352L1173.93 188.443C1195.7 188.443 1208.17 179.913 1208.17 165.024C1208.17 150.256 1198.15 146.325 1177.04 143.532C1155.71 140.724 1153.55 139.267 1153.55 134.289C1153.55 130.191 1155.38 124.711 1171.18 124.711C1185.31 124.711 1190.49 127.747 1192.64 137.203C1192.83 138.083 1193.64 138.736 1194.57 138.736H1203.48C1204.02 138.736 1204.56 138.493 1204.94 138.098C1205.32 137.688 1205.52 137.142 1205.47 136.58C1204.1 120.249 1193.21 112.66 1171.21 112.66C1151.62 112.66 1139.94 120.871 1139.94 134.653C1139.94 149.633 1151.56 153.747 1170.37 155.598C1192.86 157.784 1194.61 161.047 1194.61 165.449C1194.61 173.098 1188.46 176.346 1173.99 176.346C1155.8 176.346 1151.82 171.808 1150.48 162.808C1150.33 161.851 1149.5 161.138 1148.53 161.138H1139.65C1138.55 161.138 1137.67 162.018 1137.67 163.111ZM1145.6 240.776C1147.8 242.036 1150.28 242.689 1152.8 242.689V242.658C1155.33 242.658 1157.83 242.006 1160.03 240.746L1228.71 201.283C1233.15 198.703 1235.91 193.937 1235.91 188.823V109.959C1235.91 104.813 1233.15 100.047 1228.71 97.4975L1160.03 58.02C1155.71 55.5763 1149.93 55.5763 1145.58 58.02L1076.83 97.4823C1072.37 100.017 1069.63 104.813 1069.63 109.943V188.807C1069.63 193.922 1072.37 198.703 1076.83 201.268L1094.88 211.604C1103.6 215.885 1106.74 215.885 1110.71 215.885C1123.62 215.885 1131.05 208.114 1131.05 194.56V116.682C1131.05 115.559 1130.15 114.709 1129.06 114.709H1120.37C1119.24 114.709 1118.37 115.574 1118.37 116.682V194.529C1118.37 200.54 1112.11 206.535 1101.91 201.45L1083.1 190.644C1082.44 190.28 1082.03 189.566 1082.03 188.807V109.943C1082.03 109.184 1082.44 108.456 1083.11 108.076L1151.76 68.6596C1152.4 68.2802 1153.24 68.2802 1153.88 68.6596L1222.56 108.076C1223.22 108.471 1223.63 109.169 1223.63 109.959V188.807C1223.63 189.566 1223.22 190.295 1222.57 190.659L1153.88 230.106C1153.29 230.455 1152.39 230.455 1151.75 230.106L1134.13 219.709C1133.61 219.406 1132.94 219.3 1132.42 219.588C1127.54 222.35 1126.61 222.699 1122.04 224.293C1120.92 224.688 1119.24 225.356 1122.67 227.268L1145.6 240.776Z" fill="#78B743"></path><path d="M781.464 414.32V351.003H805.208C810.072 351.003 814.153 351.848 817.451 353.538C820.769 355.228 823.273 357.599 824.964 360.649C826.674 363.679 827.53 367.214 827.53 371.254C827.53 375.314 826.664 378.838 824.933 381.827C823.222 384.795 820.697 387.093 817.358 388.721C814.019 390.329 809.917 391.133 805.053 391.133H788.142V381.611H803.507C806.352 381.611 808.681 381.219 810.495 380.436C812.308 379.632 813.648 378.467 814.514 376.942C815.4 375.396 815.843 373.5 815.843 371.254C815.843 369.007 815.4 367.09 814.514 365.503C813.627 363.895 812.277 362.679 810.464 361.855C808.65 361.01 806.311 360.587 803.446 360.587H792.934V414.32H781.464ZM814.174 385.63L829.848 414.32H817.049L801.652 385.63H814.174Z" fill="#24618F"></path><circle cx="813.416" cy="148.31" r="148.302" fill="#24618F"></circle><path d="M934.682 143.856C934.682 128.144 914.931 113.263 884.635 104.017C891.632 73.2695 888.511 48.8142 874.827 40.9778C871.667 39.1441 868.023 38.3203 863.991 38.3203C850.636 38.3203 833.172 47.6947 815.494 64.1398C797.817 47.7912 780.352 38.4106 766.997 38.4106C762.927 38.4106 759.244 39.3371 756.046 41.1708C742.4 49.0073 739.337 73.4239 746.393 104.075C716.155 113.34 696.5 128.183 696.5 143.856C696.5 159.567 716.252 174.449 746.548 183.694C739.55 214.442 742.671 238.897 756.356 246.734C759.515 248.567 763.198 249.436 767.288 249.436C780.643 249.436 798.107 239.959 815.785 223.514C833.463 239.862 850.927 249.243 864.282 249.243C868.353 249.243 872.055 248.374 875.253 246.541C888.899 238.704 891.962 214.288 884.906 183.637C915.028 174.41 934.682 159.509 934.682 143.856ZM863.991 49.0073C866.221 49.0073 867.984 49.5091 869.496 50.3198C876.106 54.0836 878.955 68.4441 876.726 86.9158C876.184 91.4517 875.311 96.2385 874.245 101.122C864.728 98.8056 854.339 97.0106 843.426 95.8525C836.874 86.9158 830.071 78.7898 823.228 71.6867C839.045 57.0175 853.893 49.0073 863.991 49.0073ZM766.997 49.2003C777.038 49.2003 791.944 57.1719 807.78 71.7253C800.976 78.8284 794.192 86.8965 787.737 95.8525C776.766 97.0106 766.377 98.8056 756.86 101.16C755.735 96.335 754.921 91.6447 754.34 87.1474C752.053 68.6757 754.883 54.3152 761.434 50.4935C762.888 49.6249 764.768 49.2003 766.997 49.2003ZM837.727 143.856C837.727 131.657 827.803 121.755 815.533 121.755C803.283 121.755 793.339 131.638 793.339 143.856C793.339 156.074 803.263 165.956 815.533 165.956C827.803 165.937 837.727 156.054 837.727 143.856ZM871.473 111.603C869.671 117.837 867.442 124.265 864.922 130.692C862.925 126.832 860.851 122.952 858.564 119.092C856.335 115.231 853.951 111.448 851.567 107.781C858.467 108.804 865.116 110.059 871.473 111.603ZM849.241 163.1C845.461 169.624 841.565 175.819 837.533 181.571C830.303 182.208 822.976 182.536 815.591 182.536C808.264 182.536 800.937 182.189 793.746 181.61C789.714 175.858 785.78 169.72 782 163.235C778.317 156.904 774.964 150.476 771.901 143.991C774.906 137.506 778.317 131.039 781.942 124.708C785.722 118.185 789.618 111.989 793.649 106.237C800.879 105.6 808.206 105.272 815.591 105.272C822.918 105.272 830.245 105.619 837.436 106.198C841.468 111.95 845.403 118.088 849.183 124.573C852.865 130.904 856.219 137.332 859.281 143.817C856.219 150.283 852.885 156.749 849.241 163.1ZM864.922 156.807C867.539 163.293 869.768 169.759 871.628 176.051C865.271 177.595 858.564 178.908 851.625 179.911C854.009 176.186 856.374 172.364 858.622 168.446C860.832 164.586 862.925 160.668 864.922 156.807ZM815.688 208.381C811.172 203.749 806.656 198.576 802.197 192.921C806.559 193.114 811.036 193.268 815.552 193.268C820.108 193.268 824.624 193.172 829.043 192.921C824.663 198.576 820.146 203.749 815.688 208.381ZM779.577 179.911C772.677 178.888 766.028 177.634 759.67 176.09C761.473 169.855 763.702 163.428 766.222 157C768.218 160.861 770.292 164.74 772.58 168.601C774.867 172.48 777.193 176.244 779.577 179.911ZM815.436 79.3109C819.952 83.9433 824.469 89.1162 828.927 94.7716C824.566 94.5785 820.088 94.4241 815.572 94.4241C811.017 94.4241 806.5 94.5206 802.081 94.7716C806.462 89.1162 810.978 83.9433 815.436 79.3109ZM779.519 107.781C777.135 111.506 774.77 115.328 772.521 119.246C770.292 123.106 768.199 126.986 766.202 130.846C763.586 124.361 761.357 117.895 759.496 111.603C765.873 110.097 772.58 108.804 779.519 107.781ZM735.577 168.311C718.384 161.015 707.277 151.441 707.277 143.856C707.277 136.27 718.403 126.639 735.577 119.401C739.744 117.605 744.319 116.023 749.029 114.517C751.801 123.994 755.445 133.857 759.961 143.952C755.503 154.008 751.898 163.814 749.184 173.252C744.377 171.747 739.802 170.106 735.577 168.311ZM761.706 237.392C755.096 233.628 752.246 219.267 754.476 200.796C755.018 196.26 755.891 191.473 756.957 186.59C766.474 188.906 776.863 190.701 787.776 191.859C794.328 200.796 801.131 208.922 807.974 216.025C792.137 230.675 777.29 238.704 767.191 238.704C765.001 238.646 763.159 238.222 761.706 237.392ZM876.862 200.564C879.149 219.036 876.319 233.396 869.768 237.218C868.314 238.087 866.414 238.473 864.185 238.473C854.145 238.473 839.239 230.501 823.403 215.948C830.206 208.845 836.99 200.776 843.445 191.82C854.416 190.662 864.806 188.867 874.323 186.493C875.447 191.377 876.319 196.067 876.862 200.564ZM895.547 168.311C891.38 170.106 886.806 171.689 882.095 173.194C879.324 163.717 875.68 153.854 871.163 143.759C875.621 133.703 879.227 123.898 881.94 114.459C886.747 115.965 891.303 117.605 895.586 119.381C912.779 126.677 923.886 136.251 923.886 143.836C923.847 151.441 912.741 161.054 895.547 168.311Z" fill="#00D8FF"></path><path d="M934.682 143.856C934.682 128.144 914.931 113.263 884.635 104.017C891.632 73.2695 888.511 48.8142 874.827 40.9778C871.667 39.1441 868.023 38.3203 863.991 38.3203C850.636 38.3203 833.172 47.6947 815.494 64.1398C797.817 47.7912 780.352 38.4106 766.997 38.4106C762.927 38.4106 759.244 39.3371 756.046 41.1708C742.4 49.0073 739.337 73.4239 746.393 104.075C716.155 113.34 696.5 128.183 696.5 143.856C696.5 159.567 716.252 174.449 746.548 183.694C739.55 214.442 742.671 238.897 756.356 246.734C759.515 248.567 763.198 249.436 767.288 249.436C780.643 249.436 798.107 239.959 815.785 223.514C833.463 239.862 850.927 249.243 864.282 249.243C868.353 249.243 872.055 248.374 875.253 246.541C888.899 238.704 891.962 214.288 884.906 183.637C915.028 174.41 934.682 159.509 934.682 143.856ZM863.991 49.0073C866.221 49.0073 867.984 49.5091 869.496 50.3198C876.106 54.0836 878.955 68.4441 876.726 86.9158C876.184 91.4517 875.311 96.2385 874.245 101.122C864.728 98.8056 854.339 97.0106 843.426 95.8525C836.874 86.9158 830.071 78.7898 823.228 71.6867C839.045 57.0175 853.893 49.0073 863.991 49.0073ZM766.997 49.2003C777.038 49.2003 791.944 57.1719 807.78 71.7253C800.976 78.8284 794.192 86.8965 787.737 95.8525C776.766 97.0106 766.377 98.8056 756.86 101.16C755.735 96.335 754.921 91.6447 754.34 87.1474C752.053 68.6757 754.883 54.3152 761.434 50.4935C762.888 49.6249 764.768 49.2003 766.997 49.2003ZM837.727 143.856C837.727 131.657 827.803 121.755 815.533 121.755C803.283 121.755 793.339 131.638 793.339 143.856C793.339 156.074 803.263 165.956 815.533 165.956C827.803 165.937 837.727 156.054 837.727 143.856ZM871.473 111.603C869.671 117.837 867.442 124.265 864.922 130.692C862.925 126.832 860.851 122.952 858.564 119.092C856.335 115.231 853.951 111.448 851.567 107.781C858.467 108.804 865.116 110.059 871.473 111.603ZM849.241 163.1C845.461 169.624 841.565 175.819 837.533 181.571C830.303 182.208 822.976 182.536 815.591 182.536C808.264 182.536 800.937 182.189 793.746 181.61C789.714 175.858 785.78 169.72 782 163.235C778.317 156.904 774.964 150.476 771.901 143.991C774.906 137.506 778.317 131.039 781.942 124.708C785.722 118.185 789.618 111.989 793.649 106.237C800.879 105.6 808.206 105.272 815.591 105.272C822.918 105.272 830.245 105.619 837.436 106.198C841.468 111.95 845.403 118.088 849.183 124.573C852.865 130.904 856.219 137.332 859.281 143.817C856.219 150.283 852.885 156.749 849.241 163.1ZM864.922 156.807C867.539 163.293 869.768 169.759 871.628 176.051C865.271 177.595 858.564 178.908 851.625 179.911C854.009 176.186 856.374 172.364 858.622 168.446C860.832 164.586 862.925 160.668 864.922 156.807ZM815.688 208.381C811.172 203.749 806.656 198.576 802.197 192.921C806.559 193.114 811.036 193.268 815.552 193.268C820.108 193.268 824.624 193.172 829.043 192.921C824.663 198.576 820.146 203.749 815.688 208.381ZM779.577 179.911C772.677 178.888 766.028 177.634 759.67 176.09C761.473 169.855 763.702 163.428 766.222 157C768.218 160.861 770.292 164.74 772.58 168.601C774.867 172.48 777.193 176.244 779.577 179.911ZM815.436 79.3109C819.952 83.9433 824.469 89.1162 828.927 94.7716C824.566 94.5785 820.088 94.4241 815.572 94.4241C811.017 94.4241 806.5 94.5206 802.081 94.7716C806.462 89.1162 810.978 83.9433 815.436 79.3109ZM779.519 107.781C777.135 111.506 774.77 115.328 772.521 119.246C770.292 123.106 768.199 126.986 766.202 130.846C763.586 124.361 761.357 117.895 759.496 111.603C765.873 110.097 772.58 108.804 779.519 107.781ZM735.577 168.311C718.384 161.015 707.277 151.441 707.277 143.856C707.277 136.27 718.403 126.639 735.577 119.401C739.744 117.605 744.319 116.023 749.029 114.517C751.801 123.994 755.445 133.857 759.961 143.952C755.503 154.008 751.898 163.814 749.184 173.252C744.377 171.747 739.802 170.106 735.577 168.311ZM761.706 237.392C755.096 233.628 752.246 219.267 754.476 200.796C755.018 196.26 755.891 191.473 756.957 186.59C766.474 188.906 776.863 190.701 787.776 191.859C794.328 200.796 801.131 208.922 807.974 216.025C792.137 230.675 777.29 238.704 767.191 238.704C765.001 238.646 763.159 238.222 761.706 237.392ZM876.862 200.564C879.149 219.036 876.319 233.396 869.768 237.218C868.314 238.087 866.414 238.473 864.185 238.473C854.145 238.473 839.239 230.501 823.403 215.948C830.206 208.845 836.99 200.776 843.445 191.82C854.416 190.662 864.806 188.867 874.323 186.493C875.447 191.377 876.319 196.067 876.862 200.564ZM895.547 168.311C891.38 170.106 886.806 171.689 882.095 173.194C879.324 163.717 875.68 153.854 871.163 143.759C875.621 133.703 879.227 123.898 881.94 114.459C886.747 115.965 891.303 117.605 895.586 119.381C912.779 126.677 923.886 136.251 923.886 143.836C923.847 151.441 912.741 161.054 895.547 168.311Z" stroke="black"></path><path d="M107.358 353.253H121.395L140.192 399.133H140.934L159.731 353.253H173.767V416.57H162.761V373.071H162.173L144.675 416.385H136.451L118.952 372.978H118.365V416.57H107.358V353.253Z" fill="#3A863E"></path><circle cx="148.302" cy="148.31" r="148.302" fill="#5D4037"></circle><path d="M148.798 240.441V271.899H158.762V240.441C257.63 161.796 181.232 58.4334 153.144 28.0989L150.897 20.2344L148.798 28.0989C38.541 140.449 126.181 228.082 148.798 240.441Z" fill="#3A863E"></path><path d="M148.299 239.569L153.917 229.219L159.534 239.569V271.912H148.299V239.569Z" fill="#ADAA8A"></path><path d="M148.798 240.441V271.899H158.762V240.441C257.63 161.796 181.232 58.4334 153.144 28.0989L150.897 20.2344L148.798 28.0989C38.541 140.449 126.181 228.082 148.798 240.441Z" stroke="#348C42"></path><path d="M148.299 239.569L153.917 229.219L159.534 239.569V271.912H148.299V239.569Z" stroke="#348C42"></path><path d="M460.144 414.32V351.003H501.324V360.618H471.614V377.808H499.191V387.423H471.614V404.705H501.572V414.32H460.144Z" fill="#353535"></path><path fill-rule="evenodd" clip-rule="evenodd" d="M480.873 296.612C562.778 296.612 629.175 230.215 629.175 148.31C629.175 66.405 562.778 0.0078125 480.873 0.0078125C398.967 0.0078125 332.57 66.405 332.57 148.31C332.57 230.215 398.967 296.612 480.873 296.612ZM418.047 186.644C424.131 190.243 431.385 192.042 439.806 192.042C446.039 192.042 451.585 191.096 456.445 189.204C461.343 187.275 465.405 184.585 468.633 181.135C471.898 177.648 474.161 173.585 475.422 168.948L459.673 166.11C458.671 168.781 457.225 171.025 455.332 172.843C453.44 174.661 451.196 176.034 448.599 176.961C446.002 177.852 443.127 178.297 439.973 178.297C435.113 178.297 430.865 177.258 427.229 175.181C423.594 173.066 420.755 170.005 418.715 165.998C416.85 162.268 415.853 157.797 415.724 152.587H476.479V146.688C476.479 138.934 475.441 132.349 473.363 126.932C471.285 121.478 468.447 117.045 464.849 113.632C461.25 110.219 457.187 107.714 452.661 106.119C448.135 104.524 443.461 103.726 438.638 103.726C430.698 103.726 423.76 105.6 417.824 109.347C411.926 113.094 407.325 118.306 404.023 124.984C400.759 131.662 399.126 139.379 399.126 148.135C399.126 157.002 400.759 164.737 404.023 171.341C407.325 177.907 412 183.009 418.047 186.644ZM415.752 140.121C415.952 136.447 416.865 133.015 418.492 129.826C420.384 126.153 423.056 123.185 426.506 120.922C429.993 118.622 434.074 117.472 438.749 117.472C443.052 117.472 446.8 118.455 449.99 120.421C453.218 122.387 455.722 125.077 457.503 128.49C459.284 131.866 460.174 135.743 460.174 140.121H415.752ZM524.95 138.118L506.085 104.839H487.832L514.099 147.578L487.498 190.317H505.751L524.95 158.374L544.205 190.317H562.403L535.524 147.578L562.18 104.839H543.983L524.95 138.118Z" fill="#393939"></path></svg>